<svg width="164" height="48" fill="none" xmlns="http://www.w3.org/2000/svg"><path fill="#1E90FF" d="M0 0h164v48H0z"/><path d="M26.032 19.4h-1.84v-1.6h5.44v1.6h-1.84V29h-1.76v-9.6Zm8.934 9.76c-.864 0-1.526-.245-1.984-.736-.459-.49-.688-1.184-.688-2.08v-5.888c0-.896.229-1.59.688-2.08.458-.49 1.12-.736 1.984-.736.864 0 1.525.245 1.984.736.458.49.688 1.184.688 2.08v5.888c0 .896-.23 1.59-.688 2.08-.459.49-1.12.736-1.984.736Zm0-1.6c.608 0 .912-.368.912-1.104v-6.112c0-.736-.304-1.104-.912-1.104-.608 0-.912.368-.912 1.104v6.112c0 .736.304 1.104.912 1.104Zm5.862-9.76h2.592c.874 0 1.53.235 1.968.704.437.47.656 1.157.656 2.064v1.104c0 .907-.219 1.595-.656 2.064-.438.47-1.093.704-1.968.704h-.832V29h-1.76V17.8Zm2.592 5.04c.288 0 .501-.08.64-.24.15-.16.224-.432.224-.816v-1.328c0-.384-.075-.656-.224-.816-.139-.16-.352-.24-.64-.24h-.832v3.44h.832Zm10.142-5.04h2.656c.907 0 1.568.213 1.984.64.416.416.624 1.061.624 1.936v.448c0 .576-.096 1.045-.288 1.408a1.606 1.606 0 0 1-.848.784v.032c.875.299 1.312 1.077 1.312 2.336v.96c0 .864-.23 1.525-.688 1.984-.448.448-1.11.672-1.984.672h-2.768V17.8Zm2.448 4.56c.352 0 .614-.09.784-.272.182-.181.272-.485.272-.912v-.624c0-.405-.074-.699-.224-.88-.138-.181-.362-.272-.672-.272h-.848v2.96h.688Zm.32 5.04c.31 0 .539-.08.688-.24.15-.17.224-.459.224-.864v-.976c0-.512-.09-.864-.272-1.056-.17-.203-.458-.304-.864-.304h-.784v3.44h1.008Zm5.701-9.6h1.76v9.6h2.896V29h-4.656V17.8Zm9.982 11.36c-.865 0-1.526-.245-1.985-.736-.458-.49-.688-1.184-.688-2.08v-5.888c0-.896.23-1.59.688-2.08.46-.49 1.12-.736 1.984-.736.864 0 1.526.245 1.984.736.46.49.689 1.184.689 2.08v5.888c0 .896-.23 1.59-.689 2.08-.458.49-1.12.736-1.983.736Zm0-1.6c.608 0 .911-.368.911-1.104v-6.112c0-.736-.303-1.104-.912-1.104-.608 0-.912.368-.912 1.104v6.112c0 .736.305 1.104.913 1.104Zm8.358 1.6c-.854 0-1.504-.24-1.952-.72-.448-.49-.672-1.19-.672-2.096v-5.888c0-.907.224-1.6.672-2.08.448-.49 1.098-.736 1.952-.736.853 0 1.504.245 1.952.736.448.48.672 1.173.672 2.08v.96H81.33v-1.072c0-.736-.304-1.104-.912-1.104-.608 0-.912.368-.912 1.104v6.128c0 .725.304 1.088.912 1.088.608 0 .912-.363.912-1.088V24.28h-.88v-1.6h2.544v3.664c0 .907-.224 1.605-.672 2.096-.448.48-1.099.72-1.952.72Zm5.754-11.36h1.76v9.6h2.896V29h-4.656V17.8Zm8.922 0h2.384L99.255 29h-1.76l-.32-2.224v.032h-2L94.855 29h-1.632l1.824-11.2Zm1.92 7.488-.784-5.536h-.032l-.768 5.536h1.584Zm5.142-7.488h2.608c.907 0 1.568.213 1.984.64.416.416.624 1.061.624 1.936v.688c0 1.163-.384 1.899-1.152 2.208v.032c.427.128.725.39.896.784.181.395.272.923.272 1.584v1.968c0 .32.011.581.032.784.021.192.075.384.16.576h-1.792a2.542 2.542 0 0 1-.128-.512 7.786 7.786 0 0 1-.032-.864v-2.048c0-.512-.085-.87-.256-1.072-.16-.203-.443-.304-.848-.304h-.608V29h-1.76V17.8Zm2.4 4.8c.352 0 .613-.09.784-.272.181-.181.272-.485.272-.912v-.864c0-.405-.075-.699-.224-.88-.139-.181-.363-.272-.672-.272h-.8v3.2h.64ZM130 29.77l6.18 3.73-1.64-7.03 5.46-4.73-7.19-.61L130 14.5l-2.81 6.63-7.19.61 5.46 4.73-1.64 7.03 6.18-3.73Z" fill="#fff"/></svg>